# AST/ASF file generated using VICON BodyLanguage
# -----------------------------------------------
:version 1.10
:name VICON
:units
  mass 1.0
  length 0.45
  angle deg
:documentation
   .ast/.asf automatically generated from VICON data using
   VICON BodyBuilder and BodyLanguage model FoxedUp or BRILLIANT.MOD
:root
   order TX TY TZ RX RY RZ
   axis XYZ
   position 0 0 0  
   orientation 0 0 0 
:bonedata
  begin
     id 1 
     name lhipjoint
     direction 0.682418 -0.694059 0.22932 
     length 2.25561 
     axis 0 0 0  XYZ
  end
  begin
     id 2 
     name lfemur
     direction 0.34202 -0.939693 0  
     length 6.96448  
     axis 0 0 20  XYZ
    dof rx ry rz
    limits (-160.0 20.0)
           (-70.0 70.0)
           (-60.0 70.0)
  end
  begin
     id 3 
     name ltibia
     direction 0.34202 -0.939693 0   
     length 6.88553   
     axis 0 0 20   XYZ
    dof rx
    limits (-10.0 170.0)
  end
  begin
     id 4 
     name lfoot
     direction 0.0723587 -0.198804 0.977364   
     length 1.88518   
     axis -90 7.62852e-016 20   XYZ
    dof rx rz
    limits (-45.0 90.0)
           (-70.0 20.0)
  end
  begin
     id 5 
     name ltoes
     direction 1.53558e-011 -4.21962e-011 1   
     length 0.952124   
     axis -90 7.62852e-016 20   XYZ
    dof rx
    limits (-90.0 20.0)
  end
  begin
     id 6 
     name rhipjoint
     direction -0.657603 -0.71533 0.236348   
     length 2.18854  
     axis 0 0 0  XYZ 
  end
  begin
     id 7 
     name rfemur
     direction -0.34202 -0.939693 0   
     length 6.86686   
     axis 0 0 -20   XYZ
    dof rx ry rz
    limits (-160.0 20.0)
           (-70.0 70.0)
           (-70.0 60.0)
  end
  begin
     id 8 
     name rtibia
     direction -0.34202 -0.939693 0   
     length 6.59503   
     axis 0 0 -20   XYZ
    dof rx
    limits (-10.0 170.0)
 end
 begin
     id 9 
     name rfoot
     direction -0.101977 -0.280179 0.954516   
     length 1.93723  
     axis -90 -7.62852e-016 -20   XYZ
    dof rx rz
    limits (-45.0 90.0)
           (-20.0 70.0)
  end
  begin
     id 10 
     name rtoes
     direction -1.53564e-011 -4.21897e-011 1   
     length 0.970315   
     axis -90 -7.62852e-016 -20   XYZ
    dof rx
    limits (-90.0 20.0)
  end
  begin
     id 11 
     name lowerback
     direction -0.0339559 0.999421 -0.00235966   
     length 1.88543   
     axis 0 0 0   XYZ
    dof rx ry rz
    limits (-20.0 45.0)
           (-30.0 30.0)
           (-30.0 30.0)
  end
  begin
     id 12 
     name upperback
     direction 0.00401003 0.999739 0.0224689   
     length 1.8856   
     axis 0 0 0   XYZ
    dof rx ry rz
    limits (-20.0 45.0)
           (-30.0 30.0)
           (-30.0 30.0)
  end
  begin
     id 13 
     name thorax
     direction 0.0198619 0.999546 0.0226536   
     length 1.88352   
     axis 0 0 0   XYZ
    dof rx ry rz
    limits (-20.0 45.0)
           (-30.0 30.0)
           (-30.0 30.0)
  end
  begin
     id 14 
     name lowerneck
     direction -0.0461848 0.998632 0.0245198   
     length 1.34895   
     axis 0 0 0   XYZ
    dof rx ry rz
    limits (-20.0 45.0)
           (-30.0 30.0)
           (-30.0 30.0)
  end
  begin
     id 15 
     name upperneck
     direction -0.0180627 0.994724 -0.100984   
     length 1.35214   
     axis 0 0 0   XYZ
    dof rx ry rz
    limits (-20.0 45.0)
           (-30.0 30.0)
           (-30.0 30.0)
  end
  begin
     id 16
     name head
     direction -0.00374772 0.999293 -0.037403  
     length 1.3568  
     axis 0 0 0   XYZ
    dof rx ry rz
    limits (-20.0 45.0)
           (-30.0 30.0)
           (-30.0 30.0)
  end
  begin
     id 17 
     name lclavicle
     direction 0.971773 0.191119 0.138311  
     length 2.84954  
     axis 0 0 0   XYZ
    dof ry rz
    limits (-20.0 10.0)
           (0.0 20.0)
  end
  begin
     id 18 
     name lhumerus
     direction 1 -4.4897e-011 -2.43761e-027   
     length 4.40919   
     axis 180 -30 -90   XYZ
    dof rx ry rz
    limits (-60.0 90.0)
           (-90.0 90.0)
           (-90.0 90.0)
  end
  begin
     id 19
     name lradius
     direction 1 -4.4896e-011 -9.1621e-027   
     length 3.03857   
     axis 180 -30 -90   XYZ
    dof rx
    limits (-10.0 170.0)
  end
  begin
     id 20
     name lwrist
     direction 1 -4.4896e-011 -1.41363e-026   
     length 1.51928   
     axis 1.07133e-014 90 90   XYZ
    dof ry
    limits (-180.0 0.0)
 end
  begin
     id 21 
     name lhand
     direction 1 -4.48978e-011 -2.82725e-026   
     length 0.523208   
     axis 1.80403e-014 90 90   XYZ
    dof rx rz
    limits (-90.0 90.0)
           (-45.0 45.0)
  end
  begin
     id 22 
     name lfingers
     direction 1 -4.48977e-011 -5.6545e-026   
     length 0.421824   
     axis 3.60806e-014 90 90   XYZ
    dof rx
    limits (0.0 90.0)
  end
  begin
     id 23
     name lthumb
     direction 0.707107 -6.34962e-011 0.707107   
     length 0.605657   
     axis -90 45 2.85299e-015   XYZ
    dof rx rz
    limits (-45.0 45.0)
           (-45.0 45.0)
  end
  begin
     id 24 
     name rclavicle
     direction -0.957247 0.24311 0.156766   
     length 3.12406  
     axis 0 0 0   XYZ 
    dof ry rz
    limits (-10.0 20.0)
           (-20.0 0.0)
  end
  begin
     id 25 
     name rhumerus
     direction -1 -4.48964e-011 -1.70632e-027  
     length 4.61969   
     axis 180 30 90   XYZ
    dof rx ry rz
    limits (-90.0 60.0)
           (-90.0 90.0)
           (-90.0 90.0)
  end
  begin
     id 26 
     name rradius
     direction -1 -4.48966e-011 -6.60395e-027   
     length 3.09382   
     axis 180 30 90   XYZ
    dof rx
    limits (-10.0 170.0)
  end
  begin
     id 27 
     name rwrist
     direction -1 -4.48963e-011 -1.41363e-026   
     length 1.54691   
     axis 1.07133e-014 -90 -90   XYZ
    dof ry
    limits (-180.0 0.0)
  end
  begin
     id 28
     name rhand
     direction -1 -4.49013e-011 -2.82725e-026   
     length 0.500896   
     axis 1.80403e-014 -90 -90   XYZ
    dof rx rz
    limits (-90.0 90.0)
           (-45.0 45.0)
  end
  begin
     id 29
     name rfingers
     direction -1 -4.48902e-011 -5.6545e-026   
     length 0.403835   
     axis 3.60806e-014 -90 -90   XYZ
    dof rx
    limits (0.0 90.0)
  end
  begin
     id 30
     name rthumb
     direction -0.707107 -6.34953e-011 0.707107   
     length 0.579829   
     axis -90 -45 -2.85299e-015   XYZ
    dof rx rz
    limits (-45.0 45.0)
           (-45.0 45.0)
  end
:hierarchy
  begin
    root lhipjoint rhipjoint lowerback
    lhipjoint lfemur
    lfemur ltibia
    ltibia lfoot
    lfoot ltoes
    rhipjoint rfemur
    rfemur rtibia
    rtibia rfoot
    rfoot rtoes
    lowerback upperback
    upperback thorax
    thorax lowerneck lclavicle rclavicle
    lowerneck upperneck
    upperneck head
    lclavicle lhumerus
    lhumerus lradius
    lradius lwrist
    lwrist lhand lthumb
    lhand lfingers
    rclavicle rhumerus
    rhumerus rradius
    rradius rwrist
    rwrist rhand rthumb
    rhand rfingers
  end

#!OML:ASF E:\madness\Project 1\Capture day 1\Session 1\Female1.ASF
:FULLY-SPECIFIED
:DEGREES
812
root 21.6157 15.4084 -1.32678 381.02 -68.6545 -356.788
lowerback 26.7595 2.39167 -3.07742
upperback 10.5293 1.80728 3.55965
thorax -3.2974 0.453587 5.16547
lowerneck -8.03459 -1.98514 -1.81968
upperneck 6.57439 -2.25169 -2.69734
head 3.54661 -1.28907 -0.693638
rclavicle 3.73715e-014 -5.56597e-015
rhumerus -31.4551 -11.8006 -43.6701
rradius 109.086
rwrist -18.8982
rhand -26.335 -40.3944
rfingers 7.12502
rthumb 0.222171 -70.374
lclavicle 3.73715e-014 -5.56597e-015
lhumerus -47.7749 14.8575 74.8824
lradius 83.2135
lwrist -5.24762
lhand -52.8238 -24.0941
lfingers 7.12502
lthumb -25.2969 4.24845
rfemur -46.042 -6.08125 22.0186
rtibia 59.9424
rfoot -21.5946 -20.1706
rtoes 0.270519
lfemur -46.556 -17.9061 -10.6932
ltibia 50.5177
lfoot -19.5362 12.0705
ltoes -7.37742
813
root 21.5906 15.4297 -1.35479 381.149 -68.5978 -356.876
lowerback 26.523 2.61652 -3.35012
upperback 10.4114 2.04139 3.37101
thorax -3.34413 0.576989 5.04572
lowerneck -7.5134 -2.21188 -1.48731
upperneck 6.29038 -2.62475 -2.51841
head 3.34091 -1.44947 -0.700464
rclavicle -2.38542e-014 -9.54166e-015
rhumerus -31.479 -11.8063 -43.7751
rradius 109.344
rwrist -18.5944
rhand -26.4319 -41.4067
rfingers 7.12502
rthumb 0.128563 -71.3864
lclavicle -2.38542e-014 -9.54166e-015
lhumerus -47.8738 14.7378 74.7569
lradius 82.3898
lwrist -5.50704
lhand -53.0447 -23.0071
lfingers 7.12502
lthumb -25.5086 5.30543
rfemur -46.3697 -5.70862 21.7302
rtibia 60.5208
rfoot -20.8875 -19.4759
rtoes 0.799301
lfemur -46.358 -18.102 -10.4598
ltibia 50.0599
lfoot -19.1167 12.4376
ltoes -8.22769
814
root 21.5612 15.4545 -1.38331 381.323 -68.5594 -357.185
lowerback 26.4615 2.78193 -3.68827
upperback 10.3078 2.17962 3.26937
thorax -3.45133 0.648566 5.08843
lowerneck -6.71127 -2.2793 -1.10552
upperneck 5.76753 -2.77161 -2.69775
head 2.99738 -1.50947 -0.810685
rclavicle -1.59028e-014 2.14687e-014
rhumerus -31.1872 -11.4303 -43.8759
rradius 109.404
rwrist -18.2778
rhand -26.5663 -41.8825
rfingers 7.12502
rthumb -0.00125414 -71.8622
lclavicle -1.59028e-014 2.14687e-014
lhumerus -48.3919 14.5439 74.6766
lradius 82.3279
lwrist -5.35885
lhand -53.0913 -22.0696
lfingers 7.12502
lthumb -25.5532 6.23652
rfemur -46.4297 -5.24336 21.473
rtibia 61.0167
rfoot -20.1572 -18.6904
rtoes 1.25663
lfemur -45.9389 -18.2997 -10.2086
ltibia 49.5771
lfoot -18.7796 12.6562
ltoes -8.03279
815
root 21.5332 15.4871 -1.41251 381.213 -68.3997 -357.247
lowerback 26.4573 2.80833 -4.03868
upperback 10.2818 2.13301 3.22729
thorax -3.4799 0.622608 5.25883
lowerneck -6.66343 -2.34477 -2.03673
upperneck 5.91617 -2.82437 -1.8467
head 3.06537 -1.52519 -0.377266
rclavicle 4.77083e-015 1.78906e-014
rhumerus -30.5027 -10.9152 -43.9118
rradius 109.373
rwrist -18.1136
rhand -26.4994 -41.9486
rfingers 7.12502
rthumb 0.0633847 -71.9283
lclavicle 4.77083e-015 1.78906e-014
lhumerus -48.7755 14.8069 74.7006
lradius 82.2793
lwrist -5.02654
lhand -53.0202 -20.7793
lfingers 7.12502
lthumb -25.4851 7.53655
rfemur -46.4515 -4.80243 21.033
rtibia 61.4667
rfoot -19.5721 -17.6681
rtoes 3.992
lfemur -45.4447 -18.4663 -10.0866
ltibia 49.0959
lfoot -18.7001 12.5399
ltoes -7.03783
816
root 21.5072 15.5198 -1.44225 380.966 -68.1961 -357.092
lowerback 26.4236 2.7564 -4.43524
upperback 10.2575 1.98065 3.22757
thorax -3.48039 0.543079 5.53467
lowerneck -6.70367 -2.3323 -2.50362
upperneck 5.9726 -2.77385 -1.6644
head 3.10326 -1.5053 -0.236255
rclavicle -4.92986e-014 -1.43125e-014
rhumerus -29.7404 -10.379 -43.9892
rradius 109.452
rwrist -17.9308
rhand -26.3974 -41.79
rfingers 7.12502
rthumb 0.161904 -71.7697
lclavicle -4.92986e-014 -1.43125e-014
lhumerus -49.0929 15.3435 74.7279
lradius 81.9519
lwrist -5.02117
lhand -53.2135 -20.7741
lfingers 7.12502
lthumb -25.6702 7.5152
rfemur -46.6078 -4.37298 20.467
rtibia 61.8911
rfoot -19.2021 -16.85
rtoes 7.06593
lfemur -45.0592 -18.6091 -10.0208
ltibia 48.6507
lfoot -18.6987 12.19
ltoes -6.49011
